# xmcd
#
# Track frame offsets:
#	150
#	15858
#	35015
#	52080
#	68808
#	85720
#	103443
#	117115
#	132820
#	154798
#	171528
#	195980
#
# Disc length: 3634
#
# Revision: 2
# Processed by: cddbd v1.5.1PL0 Copyright (c) Steve Scherf et al.
# Submitted via: Media_Universe 3.0
# Normalized: r1:DSETVAR2,TDELIM( - )
#
DISCID=9c0e300c
DTITLE=Various Artist - La route des tubes rock music
DYEAR=1900
DGENRE=Blues
TTITLE0=Blues Brothers - Who's making love
TTITLE1=Bad Company - I can't get enough
TTITLE2=Little Feat - Time lovers a hero
TTITLE3=The Cars - My best friend's girl
TTITLE4=Pretenders - Don't get me wrong
TTITLE5=Foreigner - Urgent
TTITLE6=Montrose - Rock the nation
TTITLE7=Alice Cooper - School's out
TTITLE8=Eagles - One of these night
TTITLE9=Doobie Brothers - What a fool believe
TTITLE10=Yes - Going for the one
TTITLE11=Iron Butterfly - In a gadda da vida
EXTD=
EXTT0=
EXTT1=
EXTT2=
EXTT3=
EXTT4=
EXTT5=
EXTT6=
EXTT7=
EXTT8=
EXTT9=
EXTT10=
EXTT11=
PLAYORDER=
